# xmcd
#
# Track frame offsets:
#	150
#	9456
#	23620
#	35280
#	49820
#	61263
#	70929
#	81247
#	90886
#	102078
#
# Disc length: 1520 seconds
#
# Revision: 1
# Processed by: cddbd v1.5.2PL0 Copyright (c) Steve Scherf et al.
# Submitted via: audiograbber 1.83.01
#
DISCID=6b05ee0a
DTITLE=Hank Williams, Jr. and Lois Johnson - Send Me Some Lovin'
DYEAR=1972
DGENRE=Country
TTITLE0=Send Me Some Lovin' (Hank Williams Jr. And Lois Johnson)
TTITLE1=Someone To Give My Love To
TTITLE2=The Only Daddy That Will Walk
TTITLE3=Why Should We Try Anymore
TTITLE4=Stop And Think It Over
TTITLE5=Whole Lotta Loving
TTITLE6=You're Gonna Change
TTITLE7=I'm Walkin'
TTITLE8=Together Again
TTITLE9=Then You Can Tell Me Goodbye
EXTD=
EXTT0=
EXTT1=
EXTT2=
EXTT3=
EXTT4=
EXTT5=
EXTT6=
EXTT7=
EXTT8=
EXTT9=
PLAYORDER=
